<?xml version="1.0" encoding="utf-8"?>
<!-- Generator: Adobe Illustrator 21.0.0, SVG Export Plug-In . SVG Version: 6.00 Build 0)  -->
<svg version="1.1" id="Capa_1" xmlns="http://www.w3.org/2000/svg" xmlns:xlink="http://www.w3.org/1999/xlink" x="0px" y="0px"
	 viewBox="0 0 512 512" style="enable-background:new 0 0 512 512;" xml:space="preserve">
<style type="text/css">
	.st0{fill:#42C0FB;}
</style>
<g>
	<g>
		<path class="st0" d="M490.7,277.3h-69l-59.7-219c-2.6-9.5-11.3-15.8-21.1-15.7c-9.8,0.2-18.2,7.1-20.4,16.7l-69.3,311.8l-81.8-229
			c-3.1-8.7-11.4-14.4-20.8-14.1c-9.3,0.3-17.3,6.5-19.8,15.5L90.6,277.3H21.3C9.5,277.3,0,286.9,0,298.7S9.5,320,21.3,320h85.3
			c9.5,0,17.9-6.3,20.5-15.5l24.4-85.4l84.4,236.1c3,8.5,11.1,14.2,20.1,14.2c0.4,0,0.9,0,1.3,0c9.5-0.6,17.4-7.4,19.5-16.7
			l66.6-299.8l41.3,151.4c2.5,9.3,11,15.7,20.6,15.7h85.3c11.8,0,21.3-9.6,21.3-21.3S502.5,277.3,490.7,277.3z"/>
	</g>
</g>
</svg>
