<?xml version="1.0" encoding="utf-8"?>
<!-- Generator: Adobe Illustrator 21.0.0, SVG Export Plug-In . SVG Version: 6.00 Build 0)  -->
<svg version="1.1" id="Capa_1" xmlns="http://www.w3.org/2000/svg" xmlns:xlink="http://www.w3.org/1999/xlink" x="0px" y="0px"
	 viewBox="0 0 512 512" style="enable-background:new 0 0 512 512;" xml:space="preserve">
<style type="text/css">
	.st0{fill:#42C0FB;}
</style>
<g>
	<g>
		<path class="st0" d="M162.7,199.6c-1.4-2.7-4-4.4-7-4.6l-71.8-4.8c-3.7-0.4-7.2,1.9-8.5,5.4L23.6,327.8c-1.4,3.5-0.3,7.6,2.8,9.9
			c1.5,1.2,3.3,1.7,5.2,1.7c1.8,0,3.6-0.6,5.1-1.7l43-32.2l25,5c4.1,0.8,8.2-1.4,9.6-5.3c13.4-35.2,29.6-67.9,48-97.2
			C163.9,205.5,164,202.3,162.7,199.6z M100.9,292.4l-21.7-4.3c-2.4-0.5-4.8,0.1-6.8,1.5l-22,16.5L89,207.6l51.5,3.4
			C125.6,236.2,112.4,263.5,100.9,292.4z"/>
	</g>
</g>
<g>
	<g>
		<path class="st0" d="M321.8,428.2l-4.8-71.8c-0.2-3-2-5.7-4.6-7c-2.7-1.4-5.9-1.2-8.4,0.4c-29.3,18.4-62,34.6-97.2,48
			c-3.9,1.5-6.1,5.6-5.3,9.6l5,25l-32.2,42.9c-2.3,3.1-2.3,7.3,0,10.3c1.6,2.2,4.2,3.4,6.8,3.4c1,0,2.1-0.2,3.1-0.6l132.3-51.8
			C319.9,435.3,322.1,431.9,321.8,428.2z M205.9,461.6l16.5-22c1.5-1.9,2-4.4,1.5-6.8l-4.3-21.7c29-11.4,56.2-24.7,81.4-39.5
			l3.4,51.5L205.9,461.6z"/>
	</g>
</g>
<g>
	<g>
		<path class="st0" d="M247.4,256H190c-3.1,0-5.9,1.7-7.5,4.4l-72.2,129.7c-1.9,3.4-1.2,7.6,1.5,10.3c1.6,1.6,3.8,2.4,5.9,2.4
			c1.5,0,3-0.4,4.4-1.2L251.9,323c2.6-1.5,4.1-4.3,4.1-7.3v-51.2C256,259.8,252.2,256,247.4,256z M238.9,310.9l-98,59.3L195,273l0,0
			h44v37.9H238.9z"/>
	</g>
</g>
<g>
	<g>
		<path class="st0" d="M511.6,8.2c-0.4-4.2-3.6-7.4-7.8-7.8C501,0.2,220-19.4,98.3,299.1c-1.2,3.1-0.4,6.7,1.9,9.1l40.6,40.6
			c1.9,1.9,4.6,2.8,7.2,2.4c2.7-0.4,5-2,6.3-4.3l40.6-73.8h43.9v38L164.5,358c-2.2,1.4-3.6,3.7-3.9,6.3c-0.3,2.6,0.6,5.1,2.4,7
			l40.6,40.6c1.6,1.6,3.8,2.5,6,2.5c1,0,2.1-0.2,3-0.6C531.4,292,511.8,11,511.6,8.2z M466.8,159.6
			c-29.9,74.1-98.5,174.8-254.9,236.1l-29.1-29.1L252,323c2.5-1.6,4-4.3,4-7.2v-51.2c0-4.7-3.8-8.5-8.5-8.5H190
			c-3.1,0-6,1.7-7.5,4.4l-37.6,68.3l-28.6-28.6C223,27.7,450.6,16.6,494.8,17.2C495.2,37.1,493.3,94,466.8,159.6z"/>
	</g>
</g>
<g>
	<g>
		<path class="st0" d="M146.2,376.9c-1.9-2.5-4.8-3.7-7.7-3.3c0.3-2.9-0.9-5.8-3.3-7.7c-12.9-9.7-29.5-13-45.6-8.9
			c-17.1,4.3-31.1,16-38.3,32L0.9,500c-1.5,3.2-0.8,7.1,1.7,9.6c1.6,1.6,3.8,2.5,6,2.5c1.2,0,2.4-0.3,3.5-0.8l111-50.5
			c16-7.3,27.6-21.2,32-38.3C159.1,406.4,155.9,389.8,146.2,376.9z M138.5,418.2c-3.1,12-11.3,21.9-22.5,27l-90.3,41l41-90.3
			c5.1-11.2,15-19.5,27-22.5c3.2-0.8,6.3-1.2,9.5-1.2c5.3,0,10.5,1.1,15.2,3.3l-8.1,14.4c-1.9,3.3-1.3,7.5,1.4,10.2
			c2.7,2.7,6.9,3.3,10.2,1.4l14.4-8.1C139.9,401,140.7,409.7,138.5,418.2z"/>
	</g>
</g>
<g>
	<g>
		<path class="st0" d="M511.6,8.2c-0.4-4.2-3.6-7.4-7.8-7.8c-3.3-0.3-82.4-6.3-175.5,36.6c-2.5,1.2-4.3,3.5-4.8,6.2s0.4,5.6,2.4,7.5
			L461.2,186c1.6,1.6,3.8,2.5,6,2.5c0.5,0,1,0,1.5-0.1c2.7-0.5,5.1-2.3,6.2-4.8C517.8,90.7,511.8,11.6,511.6,8.2z M464.5,165.3
			L346.7,47.5c68.1-28.7,127.7-30.7,148.1-30.4C495.2,37.6,493.3,97,464.5,165.3z"/>
	</g>
</g>
<g>
	<g>
		<path class="st0" d="M376.8,135.2c-28.7-28.7-75.4-28.7-104.1,0s-28.7,75.4,0,104.1c14.3,14.4,33.2,21.5,52,21.5s37.7-7.2,52-21.5
			C405.5,210.5,405.5,163.9,376.8,135.2z M364.8,227.2c-22,22-57.9,22-79.9,0s-22-57.9,0-79.9c11-11,25.5-16.5,40-16.5
			s29,5.5,40,16.5C386.8,169.3,386.8,205.1,364.8,227.2z"/>
	</g>
</g>
<g>
	<g>
		<path class="st0" d="M341.8,204.2c-9.4,9.4-24.6,9.4-33.9,0c-9.4-9.4-9.4-24.6,0-33.9c9.4-9.4,24.6-9.4,33.9,0
			c3.3,3.3,8.7,3.3,12.1,0c3.3-3.3,3.3-8.7,0-12.1c-16-16-42.1-16-58.1,0s-16,42.1,0,58.1c8,8,18.5,12,29,12s21-4,29-12
			c3.3-3.3,3.3-8.7,0-12.1C350.5,200.8,345.1,200.8,341.8,204.2z"/>
	</g>
</g>
</svg>
